<svg display="none" xmlns="http://www.w3.org/2000/svg">

    <symbol id="intro-btn-1" width="24" height="24" viewBox="0 0 24 24" xmlns="http://www.w3.org/2000/svg">
    <g>
        <path d="M12 22C11.8 22 11.6 21.9 11.4 21.8L8.5 19.7L5.6 21.8C5.3 22 4.9 22 4.6 21.9C4.2 21.7 4 21.4 4 21V5.5C4 3.5 5.5 2 7.3 2H16.6C18.5 2 20 3.5 20 5.5V21C20 21.4 19.8 21.7 19.5 21.9C19.2 22.1 18.8 22 18.5 21.8L15.6 19.7L12.7 21.8C12.4 21.9 12.2 22 12 22ZM8.5 17.5C8.7 17.5 8.9 17.6 9.1 17.7L12 19.8L14.9 17.7C15.2 17.5 15.7 17.5 16 17.7L17.9 19V5.5C18 4.7 17.4 4 16.7 4H7.3C6.6 4 6 4.7 6 5.5V19.1L7.9 17.8C8.1 17.6 8.3 17.5 8.5 17.5Z"/>
        <path d="M11.4996 14.2C11.2996 14.2 10.9996 14.1 10.8996 14L8.89956 12.4C8.49956 12 8.39956 11.3 8.79956 10.9C9.19956 10.5 9.79956 10.4 10.1996 10.8L11.3996 11.8L13.6996 9.20001C14.0996 8.80001 14.6996 8.80001 15.0996 9.10001C15.4996 9.50001 15.4996 10.1 15.1996 10.5L12.2996 13.9C12.0996 14.1 11.7996 14.2 11.4996 14.2Z"/>
    </g>
    </symbol>

    <symbol id="intro-btn-2" width="24" height="24" viewBox="0 0 24 24" xmlns="http://www.w3.org/2000/svg">
    <g>
        <path d="M12 19C11.1969 19 10.4941 18.6946 9.99216 18.0838L4.47059 11.3653C3.96863 10.7545 3.86824 9.83832 4.16941 9.12575C4.47059 8.41317 5.17333 7.90419 5.97647 7.90419H8.28549V4.34132C8.28549 3.01796 9.3898 2 10.6949 2H13.4055C14.7106 2 15.7145 3.01796 15.7145 4.34132V7.90419H18.0235C18.8267 7.90419 19.5294 8.31138 19.8306 9.12575C20.1318 9.83832 20.0314 10.6527 19.5294 11.2635L14.0078 18.0838C13.5059 18.6946 12.8031 19 12 19ZM5.97647 10.0419L11.498 16.7605C11.6988 16.9641 11.8996 16.9641 12 16.9641C12.1004 16.9641 12.3012 16.9641 12.502 16.7605L18.0235 10.0419H14.7106C14.1082 10.0419 13.7067 9.63473 13.7067 9.02395V4.34132C13.7067 4.13772 13.5059 4.03593 13.4055 4.03593H10.6949C10.4941 4.03593 10.2933 4.23952 10.2933 4.34132V8.92216C10.2933 9.53293 9.89177 9.94012 9.28941 9.94012H5.97647V10.0419Z"/>
        <path d="M18.4179 22H5.48259C3.49254 22 2 20.5 2 18.5V16C2 15.4 2.39801 15 2.99502 15C3.59204 15 3.99005 15.4 3.99005 16V18.5C3.99005 19.3 4.68657 20 5.48259 20H18.5174C19.3134 20 20.01 19.3 20.01 18.5V16C20.01 15.4 20.408 15 21.005 15C21.602 15 22 15.4 22 16V18.5C21.9005 20.5 20.408 22 18.4179 22Z"/>
    </g>
    </symbol>

    <symbol id="footer-btn" width="24" height="24" viewBox="0 0 24 24" xmlns="http://www.w3.org/2000/svg">
    <g>
        <path fill-rule="evenodd" clip-rule="evenodd" d="M3.57495 2.17326C4.86403 0.88828 7.02542 1.24761 7.93802 2.76378L7.94437 2.77433L10.0481 6.36934C10.6676 7.45003 10.5113 8.83931 9.58705 9.76059L9.23813 10.1084C10.4736 12.0461 12.3503 13.9632 14.2473 15.113L14.5942 14.8057C15.5184 13.9046 16.898 13.7565 17.9731 14.3689L17.9809 14.3733L21.5408 16.4434C22.4222 16.8653 22.8861 17.6806 22.981 18.4946C23.0759 19.3078 22.8156 20.1904 22.1826 20.8214L20.983 22.0172C19.7376 23.2587 17.7101 23.8081 15.9799 23.0242C13.7025 22.0935 10.2868 20.3373 7.17369 17.2341C4.05248 14.1228 2.29312 10.6117 1.36877 8.46384C0.580206 6.74439 1.1236 4.72833 2.36039 3.48368L3.54727 2.20198C3.5563 2.19222 3.56553 2.18265 3.57495 2.17326ZM4.99956 3.57189L3.81678 4.84917C3.80774 4.85892 3.79851 4.8685 3.78909 4.87789C3.04036 5.62424 2.79124 6.78037 3.19016 7.64193C3.194 7.65023 3.19773 7.65858 3.20134 7.66698C4.07772 9.70538 5.71644 12.9631 8.5874 15.8249C11.4635 18.6918 14.635 20.3225 16.7561 21.1875C16.7697 21.193 16.7831 21.1989 16.7965 21.205C17.6608 21.6026 18.8206 21.3543 19.5693 20.608L20.7689 19.4122C20.9356 19.246 21.0252 18.9827 20.9951 18.7247C20.9669 18.4831 20.8472 18.3176 20.6622 18.2338C20.6315 18.2199 20.6014 18.2044 20.5722 18.1874L16.9781 16.0975C16.6631 15.9199 16.2592 15.9641 15.9848 16.2377C15.971 16.2515 15.9567 16.2648 15.9421 16.2778L15.0424 17.075C14.7325 17.3495 14.2849 17.405 13.9171 17.2143C11.2199 15.8163 8.58822 13.074 7.10831 10.4397C6.88962 10.0504 6.95716 9.56368 7.27365 9.2482L8.17334 8.35137C8.44778 8.0778 8.49207 7.67517 8.31392 7.36125L6.22104 3.78485C5.93617 3.3176 5.31277 3.27497 4.99956 3.57189Z" />
        <path fill-rule="evenodd" clip-rule="evenodd" d="M16.2554 8.13276C15.754 7.63136 14.9795 7.45162 14.4318 7.63417C13.862 7.82412 13.2461 7.51615 13.0561 6.9463C12.8662 6.37645 13.1741 5.76051 13.744 5.57056C15.154 5.10054 16.7723 5.57337 17.7935 6.59464C18.8148 7.6159 19.2876 9.23414 18.8176 10.6442C18.6277 11.2141 18.0117 11.522 17.4419 11.3321C16.872 11.1421 16.5641 10.5262 16.754 9.95633C16.9366 9.40868 16.7568 8.63416 16.2554 8.13276Z" />
        <path fill-rule="evenodd" clip-rule="evenodd" d="M18.9493 5.43886C17.1752 3.66472 14.5963 3.04034 12.2855 3.66247C11.7415 3.80892 11.1818 3.48667 11.0353 2.94268C10.8889 2.3987 11.2111 1.83899 11.7551 1.69253C14.7486 0.886606 18.0859 1.69028 20.3919 3.9963C22.6979 6.30232 23.5016 9.63963 22.6957 12.6331C22.5492 13.1771 21.9895 13.4993 21.4455 13.3529C20.9015 13.2064 20.5793 12.6467 20.7257 12.1027C21.3478 9.79193 20.7235 7.213 18.9493 5.43886Z" />
    </g>
    </symbol>

</svg>
