<svg width="180" height="180" viewBox="0 0 180 180" fill="none" xmlns="http://www.w3.org/2000/svg">
<circle cx="90" cy="90" r="84.668" fill="#D74B4B" stroke="#D74B4B" stroke-width="10.6641"/>
<path d="M60.043 132.728L89.4152 62.0515L118.086 132.697C118.087 132.7 118.088 132.702 118.089 132.705C118.796 134.469 119.94 135.92 121.497 136.998L121.586 137.059L121.679 137.113C123.262 138.017 124.964 138.5 126.754 138.5C130.047 138.5 132.787 137.183 134.451 134.377C136.136 131.601 136.246 128.526 135.031 125.434L135.021 125.408L135.01 125.382L97.7423 36.4412C97.0368 34.5655 95.9519 32.9718 94.3916 31.8572C92.8101 30.7276 90.9421 30.2346 88.9388 30.2346C86.9894 30.2346 85.1757 30.7447 83.6182 31.8572C82.0794 32.9564 80.9562 34.5245 80.162 36.3776L80.158 36.3871L80.1539 36.3967L43.0094 125.094C41.6445 128.185 41.8022 131.304 43.5822 134.152C45.3552 136.989 48.0463 138.5 51.3877 138.5C53.1127 138.5 54.74 138.004 56.2337 137.092C57.9555 136.098 59.2169 134.617 60.0248 132.771L60.0341 132.75L60.043 132.728Z" fill="white" stroke="white" stroke-width="5"/>
</svg>
