<svg width="16" height="16" viewBox="0 0 16 16" fill="none" xmlns="http://www.w3.org/2000/svg">
<path d="M7.99967 14.6667C4.33301 14.6667 1.33301 11.6667 1.33301 8.00001C1.33301 4.33334 4.33301 1.33334 7.99967 1.33334C11.6663 1.33334 14.6663 4.33334 14.6663 8.00001C14.6663 11.6667 11.6663 14.6667 7.99967 14.6667ZM7.99967 2.66668C5.06634 2.66668 2.66634 5.06668 2.66634 8.00001C2.66634 10.9333 5.06634 13.3333 7.99967 13.3333C10.933 13.3333 13.333 10.9333 13.333 8.00001C13.333 5.06668 10.933 2.66668 7.99967 2.66668Z" fill="#D62D30"/>
<path d="M11.2663 8.66668H7.99967C7.59967 8.66668 7.33301 8.40001 7.33301 8.00001V4.73335C7.33301 4.33335 7.59967 4.06668 7.99967 4.06668C8.39967 4.06668 8.66634 4.33335 8.66634 4.73335V7.33335H11.2663C11.6663 7.33335 11.933 7.60001 11.933 8.00001C11.933 8.40001 11.6663 8.66668 11.2663 8.66668Z" fill="#D62D30"/>
</svg>
