<svg width="16" height="16" viewBox="0 0 16 16" fill="none" xmlns="http://www.w3.org/2000/svg">
<path d="M5.79575 6.80186C5.52528 6.53526 5.11958 6.53526 4.84911 6.80186C4.57864 7.06847 4.57864 7.46837 4.84911 7.73497L7.62142 10.6676C7.75666 10.8009 7.95951 10.8676 8.09475 10.8676C8.2976 10.8676 8.50045 10.8009 8.56807 10.601L15.1946 2.4029C15.3974 2.1363 15.3974 1.66974 15.0593 1.46979C14.8565 1.26984 14.4508 1.26984 14.1803 1.60309L12.828 3.26937C11.6108 2.06965 9.8528 1.33649 8.09475 1.33649C4.37579 1.33649 1.33301 4.33578 1.33301 8.00158C1.33301 11.6674 4.37579 14.6667 8.09475 14.6667C11.8137 14.6667 14.8565 11.6674 14.8565 8.00158C14.8565 7.40172 14.7889 6.80186 14.586 6.202C14.4508 5.86875 14.1127 5.6688 13.7746 5.73545C13.4365 5.8021 13.2337 6.202 13.3013 6.53526C13.4365 7.00181 13.5041 7.53502 13.5041 8.00158C13.5041 10.9342 11.0699 13.3336 8.09475 13.3336C5.11958 13.3336 2.68536 10.9342 2.68536 8.00158C2.68536 5.06894 5.11958 2.66951 8.09475 2.66951C9.58233 2.66951 10.9347 3.26937 12.0166 4.33578L8.09475 9.20129L5.79575 6.80186Z" fill="black"/>
</svg>
