<svg width="248" height="66" viewBox="0 0 248 66" fill="none" xmlns="http://www.w3.org/2000/svg">
<circle cx="32.8882" cy="32.8882" r="32.4497" stroke="#010100" stroke-width="0.877018"/>
<path d="M17.6647 49.351H17.6645C17.4167 49.3511 17.1777 49.2521 16.9999 49.0737C16.9127 48.9861 16.8432 48.8816 16.7957 48.766C16.7482 48.6505 16.7237 48.5263 16.7237 48.4008V16.8317C16.724 16.6432 16.7797 16.4595 16.8831 16.304L16.8832 16.304C16.9867 16.1483 17.1344 16.0265 17.3066 15.9544L17.3068 15.9543C17.4782 15.8824 17.6664 15.8636 17.848 15.8998C18.0296 15.9361 18.1973 16.0261 18.3298 16.1594C18.3298 16.1595 18.3298 16.1595 18.3298 16.1595L49.6981 47.733C49.6981 47.733 49.6982 47.7331 49.6982 47.7331C49.7955 47.8314 49.8704 47.9508 49.917 48.0828C49.9637 48.2148 49.9808 48.3559 49.9671 48.4958C49.9533 48.6356 49.909 48.7703 49.8377 48.8901C49.7665 49.0099 49.6701 49.1116 49.5559 49.1882L49.5542 49.1894C49.4007 49.2934 49.2211 49.3494 49.0375 49.351H17.6647Z" fill="#010100" stroke="#010100" stroke-width="0.877018"/>
<path opacity="0.9" d="M55.5097 41.8437L50.9699 37.2756L52.6044 35.6049C52.8092 35.3972 52.9242 35.1156 52.9242 34.822C52.9242 34.5284 52.8092 34.2467 52.6044 34.039L32.6339 13.9234C32.4273 13.715 32.1475 13.5982 31.856 13.5986C31.5644 13.5986 31.2845 13.7153 31.0775 13.9234L29.4177 15.5782L24.1819 10.3211C23.9892 10.1256 23.7436 9.99244 23.4762 9.93849C23.2087 9.88454 22.9314 9.91222 22.6795 10.018C22.4278 10.1234 22.2125 10.3013 22.0616 10.5306C21.9108 10.759 21.8308 11.0279 21.832 11.3027V42.8253C21.832 43.1929 21.9764 43.5454 22.2346 43.8056C22.4922 44.0658 22.8415 44.2128 23.207 44.2141H54.5341C54.8073 44.2141 55.074 44.1324 55.3003 43.9795C55.4701 43.8666 55.6128 43.7166 55.718 43.5406C55.8232 43.3646 55.8882 43.167 55.9083 42.9623C55.9284 42.7575 55.903 42.5508 55.834 42.3573C55.7651 42.1638 55.6543 41.9883 55.5097 41.8437Z" stroke="#010100" stroke-width="0.877018" stroke-miterlimit="10"/>
<mask id="path-4-inside-1_265_23579" fill="white">
<path d="M88.0436 51.823H83.8334V28.062H82.3878C81.4276 28.062 80.9485 28.5023 80.9485 29.383V51.823H76.7394V30.7123C76.7347 30.0056 76.8822 29.306 77.172 28.6606C77.4629 28.0137 77.8891 27.4358 78.4224 26.9654C79.5062 25.9493 80.9486 25.3973 82.4385 25.4285H88.1027L88.0436 51.823ZM102.201 51.823L97.992 51.823V37.2928H97.7229L95.1303 43.8891V51.823H90.9211V25.4285L95.1303 25.4285V37.3085H95.3994L97.992 30.729V25.4285H102.201V51.823ZM114.953 28.062H109.272V51.823H105.063V25.4285H114.97L114.953 28.062ZM128.396 51.823H124.187V42.5933H121.325V51.823H117.117V30.7123C117.112 30.0055 117.26 29.3059 117.55 28.6606C117.841 28.0137 118.267 27.4358 118.8 26.9654C119.892 25.9722 121.318 25.4216 122.798 25.4223C124.279 25.421 125.705 25.9717 126.797 26.9654C127.325 27.4318 127.748 28.0038 128.038 28.6438C128.328 29.2839 128.479 29.9777 128.481 30.6798L128.396 51.823ZM124.187 39.943V29.3913C124.187 29.2164 124.147 29.0437 124.072 28.8857C123.996 28.7276 123.886 28.5881 123.75 28.4772C123.479 28.2237 123.121 28.0827 122.748 28.0827C122.376 28.0827 122.018 28.2237 121.746 28.4772C121.615 28.5927 121.509 28.7347 121.437 28.8937C121.364 29.0527 121.326 29.2251 121.325 29.3997V39.9588L124.187 39.943ZM152.479 51.823H148.27V41.2797C148.27 40.3991 147.79 39.9588 146.83 39.9588H145.408V51.823L141.199 51.823V25.4285H145.408V37.3337H146.83C147.205 37.3368 147.567 37.1974 147.84 36.9437C147.976 36.8293 148.085 36.6866 148.159 36.5257C148.234 36.3649 148.271 36.1897 148.27 36.0128V25.4285L152.479 25.4285V34.6834C152.485 35.4417 152.316 36.1913 151.985 36.8745C151.653 37.559 151.169 38.1592 150.568 38.6295C151.171 39.1006 151.656 39.7029 151.988 40.39C152.319 41.077 152.487 41.8305 152.479 42.5922V51.823ZM166.611 51.823H162.403V42.5933H159.54V51.823H155.332V30.7123C155.328 30.0046 155.475 29.3042 155.766 28.658C156.056 28.0117 156.482 27.4347 157.015 26.9654C158.107 25.9722 159.533 25.4216 161.013 25.4223C162.496 25.4223 163.924 25.9726 165.012 26.9654C165.541 27.433 165.965 28.0054 166.256 28.6449C166.546 29.2844 166.696 29.9784 166.696 30.6787L166.611 51.823ZM162.403 39.942V29.3913C162.4 29.2161 162.358 29.0436 162.281 28.8859C162.204 28.7282 162.093 28.5891 161.957 28.4782C161.686 28.2243 161.327 28.0829 160.955 28.0829C160.582 28.0829 160.224 28.2243 159.953 28.4782C159.822 28.5935 159.718 28.7361 159.646 28.8944C159.575 29.0536 159.539 29.2258 159.54 29.3997V39.9588L162.403 39.943V39.942ZM180.803 51.823H176.511V42.1687H175.138C173.651 42.2009 172.211 41.6485 171.132 40.6318C170.598 40.1626 170.172 39.5855 169.882 38.9393C169.592 38.2931 169.444 37.5926 169.449 36.885V25.4285H173.657V38.2227C173.657 39.054 174.128 39.5352 175.072 39.5352H176.46V25.4118H180.753L180.803 51.823ZM193.547 51.823L183.64 51.823V25.4285L193.547 25.4285V28.062L187.865 28.062V37.3337H193.547V39.9588H187.865V49.2137H193.547V51.823ZM207.697 46.5634C207.703 47.269 207.555 47.9675 207.264 48.6113C206.974 49.2552 206.547 49.8293 206.013 50.2945C204.921 51.2932 203.491 51.8471 202.006 51.8461C200.522 51.8467 199.092 51.2928 198 50.2945C197.468 49.8264 197.042 49.2507 196.752 48.606C196.462 47.9613 196.313 47.2624 196.317 46.5561V30.7123C196.313 30.0048 196.462 29.3047 196.752 28.6586C197.042 28.0126 197.468 27.4354 198 26.9654C199.083 25.9496 200.525 25.3976 202.015 25.4285C203.498 25.4106 204.929 25.9749 205.996 26.999C206.525 27.4646 206.949 28.0362 207.239 28.6763C207.529 29.3163 207.68 30.0102 207.68 30.7123V32.0332H203.471C203.471 31.8508 203.471 31.5677 203.513 31.2029C203.555 30.837 203.513 30.5299 203.513 30.3223C203.513 28.8263 203 28.0788 201.99 28.0788C201.614 28.0725 201.251 28.213 200.98 28.4688C200.847 28.5852 200.742 28.7287 200.671 28.8894C200.6 29.0501 200.564 29.2242 200.567 29.3997V47.8927C200.567 48.7734 201.039 49.2137 201.99 49.2137C202.941 49.2137 203.513 48.4662 203.513 46.9796V46.0151C203.513 45.6251 203.471 45.3589 203.471 45.2425H207.68L207.697 46.5634ZM220.728 28.062H217.175V51.823H212.967V28.062H209.439V25.4285H220.744L220.728 28.062ZM233.75 46.5634C233.751 47.2681 233.601 47.965 233.311 48.608C233.02 49.251 232.596 49.8255 232.066 50.2935C230.985 51.3069 229.545 51.8565 228.059 51.823H222.402V25.4285L228.059 25.4285C229.543 25.4083 230.975 25.973 232.04 26.999C232.568 27.4652 232.991 28.037 233.282 28.6769C233.572 29.3168 233.723 30.0104 233.724 30.7123V34.6834C233.731 35.4417 233.562 36.1913 233.231 36.8745C232.899 37.559 232.414 38.1592 231.814 38.6295C232.416 39.1007 232.902 39.703 233.233 40.39C233.564 41.077 233.732 41.8305 233.724 42.5922L233.75 46.5634ZM229.541 35.996V29.3913C229.539 29.2167 229.499 29.0445 229.423 28.8868C229.348 28.7291 229.238 28.5896 229.103 28.4782C228.966 28.3424 228.803 28.2354 228.624 28.1639C228.444 28.0924 228.252 28.0577 228.059 28.062H226.637V37.3085H228.059C228.432 37.3085 228.789 37.1691 229.061 36.9185C229.195 36.8122 229.305 36.6787 229.383 36.5269C229.462 36.375 229.507 36.2084 229.515 36.0379L229.541 35.996ZM229.541 47.8927V41.2462C229.54 41.0701 229.5 40.8963 229.425 40.7371C229.349 40.5779 229.239 40.4371 229.103 40.3246C228.963 40.195 228.799 40.0945 228.62 40.0289C228.441 39.9634 228.25 39.9342 228.059 39.943H226.637V49.2137H228.059C228.434 49.2168 228.796 49.0774 229.069 48.8237C229.208 48.7106 229.32 48.5686 229.397 48.4077C229.474 48.2468 229.514 48.071 229.515 47.8927H229.541ZM247.916 51.823H243.707V42.5933H240.845V51.823H236.637V30.7123C236.632 30.0055 236.779 29.3059 237.069 28.6606C237.361 28.0139 237.787 27.436 238.32 26.9654C239.403 25.9496 240.845 25.3976 242.335 25.4285C243.819 25.4076 245.251 25.9724 246.316 26.999C246.845 27.4646 247.268 28.0363 247.559 28.6763C247.849 29.3164 247.999 30.0103 248 30.7123L247.916 51.823ZM243.707 39.943V29.3913C243.706 29.2164 243.667 29.0437 243.591 28.8857C243.516 28.7276 243.406 28.5881 243.27 28.4772C242.999 28.2217 242.641 28.0791 242.267 28.0788C241.895 28.0727 241.535 28.2128 241.266 28.4688C241.134 28.5843 241.029 28.7263 240.956 28.8853C240.883 29.0443 240.846 29.2168 240.845 29.3913V39.9588L243.707 39.943ZM84.8781 16.5217H82.0839V20.9259H80.8704V15.6338L84.8781 15.6338V16.5228V16.5217ZM86.8565 19.065V20.9259H85.6357V15.6338H88.0595C88.6585 15.6101 89.2491 15.7792 89.7435 16.116C89.9435 16.2621 90.1052 16.4537 90.215 16.6749C90.3248 16.896 90.3795 17.1401 90.3746 17.3866C90.383 17.624 90.3321 17.8599 90.2264 18.073C90.1207 18.2861 89.9635 18.4699 89.7689 18.6079C89.2712 18.9354 88.6809 19.0956 88.0848 19.065H86.8565ZM86.8565 18.176H88.0595C88.3549 18.1949 88.6483 18.1257 88.9015 17.9768C88.9968 17.9131 89.0739 17.8261 89.1257 17.7242C89.1774 17.6223 89.2019 17.509 89.197 17.395C89.2002 17.2734 89.1743 17.1528 89.1215 17.0431C89.0687 16.9334 88.9904 16.8377 88.8931 16.7639C88.6504 16.5869 88.3523 16.5014 88.0521 16.5228H86.8386L86.8565 18.176ZM93.481 18.2588L93.5728 18.5083L94.7937 15.6338H96.1232L94.1205 19.7129C93.9949 20.0127 93.825 20.2927 93.615 20.5432C93.4673 20.7057 93.2827 20.8305 93.0769 20.9101C92.8342 21.0045 92.5725 21.0506 92.3108 21.0422H91.797V20.1197H92.2349C92.3865 20.1233 92.5359 20.0837 92.6657 20.0057C92.7954 19.9277 92.9 19.8145 92.9672 19.6794L90.8547 15.6338H92.2011L93.481 18.2588ZM101.797 20.9259H100.569V16.5228H97.9835V20.9259H96.7469V15.6338H101.797V20.9259ZM108.009 20.9259L106.789 20.9259V16.5228H104.197V20.9259H102.983V15.6338L108.034 15.6338L108.009 20.9259ZM112.739 19.7957H110.324L109.852 20.9259H108.624L110.98 15.6338H112.1L114.423 20.9259H113.194L112.739 19.7957ZM110.678 18.9654H112.362L111.52 16.9547L110.678 18.9654ZM119.399 18.7987H118.868V20.9259H117.655V15.6338H118.868V17.8101H119.365L120.921 15.6338H122.352L120.358 18.2263L122.504 20.9259H120.989L119.399 18.7987ZM128.219 18.4004C128.237 18.7487 128.182 19.097 128.058 19.4232C127.933 19.7493 127.741 20.0461 127.495 20.2947C127.24 20.5332 126.94 20.7184 126.612 20.8396C126.284 20.9608 125.935 21.0154 125.585 21.0003C125.236 21.0132 124.887 20.9575 124.559 20.8364C124.231 20.7154 123.931 20.5313 123.674 20.2947C123.42 20.0461 123.222 19.7462 123.095 19.4153C122.967 19.0844 122.912 18.7301 122.934 18.3763V18.1676C122.922 17.6864 123.038 17.2106 123.27 16.788C123.482 16.3991 123.807 16.0804 124.204 15.8749C124.629 15.6597 125.1 15.5514 125.577 15.5593C125.928 15.5437 126.28 15.5989 126.609 15.7216C126.939 15.8443 127.24 16.0319 127.495 16.2733C127.741 16.5271 127.932 16.8283 128.057 17.1582C128.181 17.4881 128.236 17.8398 128.219 18.1917V18.4004ZM127.05 18.1592C127.079 17.7084 126.948 17.2615 126.679 16.897C126.468 16.6797 126.194 16.5327 125.895 16.476C125.596 16.4193 125.286 16.4558 125.009 16.5804C124.825 16.6626 124.66 16.7814 124.524 16.9295C124.248 17.2911 124.113 17.74 124.145 18.1928V18.4339C124.117 18.8872 124.254 19.3354 124.532 19.6961C124.669 19.8365 124.832 19.9481 125.013 20.0244C125.194 20.1006 125.388 20.1399 125.585 20.1399C125.781 20.1399 125.976 20.1006 126.156 20.0244C126.337 19.9481 126.501 19.8365 126.637 19.6961C126.904 19.3271 127.035 18.8784 127.008 18.4255L127.05 18.1592ZM130.796 15.6338L132.479 19.4634L134.162 15.6338H135.753V20.9259L134.541 20.9259V19.4969L134.625 16.9295L132.942 20.9259H132.1L130.299 16.9295L130.425 19.4969V20.9259H129.213V15.6338H130.796ZM141.957 20.9259H140.728V16.5228H138.144V20.9259H136.932V15.6338H141.982L141.957 20.9259ZM146.705 19.7957H144.289L143.817 20.9259H142.589L144.945 15.6338H146.064L148.405 20.9259H147.176L146.705 19.7957ZM144.642 18.9654H146.326L145.484 16.9547L144.642 18.9654ZM154.103 20.9259H152.882V18.7662L150.264 18.7662V20.9259H149.044V15.6338L150.264 15.6338V17.8846L152.882 17.8846V15.6338H154.103V20.9259ZM159.146 15.6338H160.365V20.9259H159.146V17.2786L156.511 20.9259H155.298V15.6338H156.511V19.2642L159.146 15.6338ZM165.417 15.6338H166.611V20.9259H165.4V17.2786L162.748 20.9259H161.561V15.6338H162.782V19.2642L165.417 15.6338ZM165.703 13.9302C165.708 14.1086 165.671 14.2858 165.595 14.4475C165.519 14.6092 165.406 14.7509 165.265 14.8611C164.915 15.0895 164.505 15.2112 164.086 15.2112C163.667 15.2112 163.257 15.0895 162.907 14.8611C162.768 14.7489 162.657 14.6068 162.581 14.4455C162.506 14.2843 162.468 14.1081 162.471 13.9302H163.379C163.375 14.0172 163.39 14.1042 163.423 14.1847C163.457 14.2652 163.508 14.3373 163.573 14.3956C163.716 14.5154 163.9 14.5752 164.086 14.5623C164.179 14.5695 164.272 14.5585 164.36 14.5299C164.448 14.5013 164.53 14.4557 164.6 14.3956C164.663 14.3365 164.713 14.264 164.745 14.1835C164.777 14.103 164.79 14.0165 164.785 13.9302H165.703Z"/>
</mask>
<path d="M88.0436 51.823H83.8334V28.062H82.3878C81.4276 28.062 80.9485 28.5023 80.9485 29.383V51.823H76.7394V30.7123C76.7347 30.0056 76.8822 29.306 77.172 28.6606C77.4629 28.0137 77.8891 27.4358 78.4224 26.9654C79.5062 25.9493 80.9486 25.3973 82.4385 25.4285H88.1027L88.0436 51.823ZM102.201 51.823L97.992 51.823V37.2928H97.7229L95.1303 43.8891V51.823H90.9211V25.4285L95.1303 25.4285V37.3085H95.3994L97.992 30.729V25.4285H102.201V51.823ZM114.953 28.062H109.272V51.823H105.063V25.4285H114.97L114.953 28.062ZM128.396 51.823H124.187V42.5933H121.325V51.823H117.117V30.7123C117.112 30.0055 117.26 29.3059 117.55 28.6606C117.841 28.0137 118.267 27.4358 118.8 26.9654C119.892 25.9722 121.318 25.4216 122.798 25.4223C124.279 25.421 125.705 25.9717 126.797 26.9654C127.325 27.4318 127.748 28.0038 128.038 28.6438C128.328 29.2839 128.479 29.9777 128.481 30.6798L128.396 51.823ZM124.187 39.943V29.3913C124.187 29.2164 124.147 29.0437 124.072 28.8857C123.996 28.7276 123.886 28.5881 123.75 28.4772C123.479 28.2237 123.121 28.0827 122.748 28.0827C122.376 28.0827 122.018 28.2237 121.746 28.4772C121.615 28.5927 121.509 28.7347 121.437 28.8937C121.364 29.0527 121.326 29.2251 121.325 29.3997V39.9588L124.187 39.943ZM152.479 51.823H148.27V41.2797C148.27 40.3991 147.79 39.9588 146.83 39.9588H145.408V51.823L141.199 51.823V25.4285H145.408V37.3337H146.83C147.205 37.3368 147.567 37.1974 147.84 36.9437C147.976 36.8293 148.085 36.6866 148.159 36.5257C148.234 36.3649 148.271 36.1897 148.27 36.0128V25.4285L152.479 25.4285V34.6834C152.485 35.4417 152.316 36.1913 151.985 36.8745C151.653 37.559 151.169 38.1592 150.568 38.6295C151.171 39.1006 151.656 39.7029 151.988 40.39C152.319 41.077 152.487 41.8305 152.479 42.5922V51.823ZM166.611 51.823H162.403V42.5933H159.54V51.823H155.332V30.7123C155.328 30.0046 155.475 29.3042 155.766 28.658C156.056 28.0117 156.482 27.4347 157.015 26.9654C158.107 25.9722 159.533 25.4216 161.013 25.4223C162.496 25.4223 163.924 25.9726 165.012 26.9654C165.541 27.433 165.965 28.0054 166.256 28.6449C166.546 29.2844 166.696 29.9784 166.696 30.6787L166.611 51.823ZM162.403 39.942V29.3913C162.4 29.2161 162.358 29.0436 162.281 28.8859C162.204 28.7282 162.093 28.5891 161.957 28.4782C161.686 28.2243 161.327 28.0829 160.955 28.0829C160.582 28.0829 160.224 28.2243 159.953 28.4782C159.822 28.5935 159.718 28.7361 159.646 28.8944C159.575 29.0536 159.539 29.2258 159.54 29.3997V39.9588L162.403 39.943V39.942ZM180.803 51.823H176.511V42.1687H175.138C173.651 42.2009 172.211 41.6485 171.132 40.6318C170.598 40.1626 170.172 39.5855 169.882 38.9393C169.592 38.2931 169.444 37.5926 169.449 36.885V25.4285H173.657V38.2227C173.657 39.054 174.128 39.5352 175.072 39.5352H176.46V25.4118H180.753L180.803 51.823ZM193.547 51.823L183.64 51.823V25.4285L193.547 25.4285V28.062L187.865 28.062V37.3337H193.547V39.9588H187.865V49.2137H193.547V51.823ZM207.697 46.5634C207.703 47.269 207.555 47.9675 207.264 48.6113C206.974 49.2552 206.547 49.8293 206.013 50.2945C204.921 51.2932 203.491 51.8471 202.006 51.8461C200.522 51.8467 199.092 51.2928 198 50.2945C197.468 49.8264 197.042 49.2507 196.752 48.606C196.462 47.9613 196.313 47.2624 196.317 46.5561V30.7123C196.313 30.0048 196.462 29.3047 196.752 28.6586C197.042 28.0126 197.468 27.4354 198 26.9654C199.083 25.9496 200.525 25.3976 202.015 25.4285C203.498 25.4106 204.929 25.9749 205.996 26.999C206.525 27.4646 206.949 28.0362 207.239 28.6763C207.529 29.3163 207.68 30.0102 207.68 30.7123V32.0332H203.471C203.471 31.8508 203.471 31.5677 203.513 31.2029C203.555 30.837 203.513 30.5299 203.513 30.3223C203.513 28.8263 203 28.0788 201.99 28.0788C201.614 28.0725 201.251 28.213 200.98 28.4688C200.847 28.5852 200.742 28.7287 200.671 28.8894C200.6 29.0501 200.564 29.2242 200.567 29.3997V47.8927C200.567 48.7734 201.039 49.2137 201.99 49.2137C202.941 49.2137 203.513 48.4662 203.513 46.9796V46.0151C203.513 45.6251 203.471 45.3589 203.471 45.2425H207.68L207.697 46.5634ZM220.728 28.062H217.175V51.823H212.967V28.062H209.439V25.4285H220.744L220.728 28.062ZM233.75 46.5634C233.751 47.2681 233.601 47.965 233.311 48.608C233.02 49.251 232.596 49.8255 232.066 50.2935C230.985 51.3069 229.545 51.8565 228.059 51.823H222.402V25.4285L228.059 25.4285C229.543 25.4083 230.975 25.973 232.04 26.999C232.568 27.4652 232.991 28.037 233.282 28.6769C233.572 29.3168 233.723 30.0104 233.724 30.7123V34.6834C233.731 35.4417 233.562 36.1913 233.231 36.8745C232.899 37.559 232.414 38.1592 231.814 38.6295C232.416 39.1007 232.902 39.703 233.233 40.39C233.564 41.077 233.732 41.8305 233.724 42.5922L233.75 46.5634ZM229.541 35.996V29.3913C229.539 29.2167 229.499 29.0445 229.423 28.8868C229.348 28.7291 229.238 28.5896 229.103 28.4782C228.966 28.3424 228.803 28.2354 228.624 28.1639C228.444 28.0924 228.252 28.0577 228.059 28.062H226.637V37.3085H228.059C228.432 37.3085 228.789 37.1691 229.061 36.9185C229.195 36.8122 229.305 36.6787 229.383 36.5269C229.462 36.375 229.507 36.2084 229.515 36.0379L229.541 35.996ZM229.541 47.8927V41.2462C229.54 41.0701 229.5 40.8963 229.425 40.7371C229.349 40.5779 229.239 40.4371 229.103 40.3246C228.963 40.195 228.799 40.0945 228.62 40.0289C228.441 39.9634 228.25 39.9342 228.059 39.943H226.637V49.2137H228.059C228.434 49.2168 228.796 49.0774 229.069 48.8237C229.208 48.7106 229.32 48.5686 229.397 48.4077C229.474 48.2468 229.514 48.071 229.515 47.8927H229.541ZM247.916 51.823H243.707V42.5933H240.845V51.823H236.637V30.7123C236.632 30.0055 236.779 29.3059 237.069 28.6606C237.361 28.0139 237.787 27.436 238.32 26.9654C239.403 25.9496 240.845 25.3976 242.335 25.4285C243.819 25.4076 245.251 25.9724 246.316 26.999C246.845 27.4646 247.268 28.0363 247.559 28.6763C247.849 29.3164 247.999 30.0103 248 30.7123L247.916 51.823ZM243.707 39.943V29.3913C243.706 29.2164 243.667 29.0437 243.591 28.8857C243.516 28.7276 243.406 28.5881 243.27 28.4772C242.999 28.2217 242.641 28.0791 242.267 28.0788C241.895 28.0727 241.535 28.2128 241.266 28.4688C241.134 28.5843 241.029 28.7263 240.956 28.8853C240.883 29.0443 240.846 29.2168 240.845 29.3913V39.9588L243.707 39.943ZM84.8781 16.5217H82.0839V20.9259H80.8704V15.6338L84.8781 15.6338V16.5228V16.5217ZM86.8565 19.065V20.9259H85.6357V15.6338H88.0595C88.6585 15.6101 89.2491 15.7792 89.7435 16.116C89.9435 16.2621 90.1052 16.4537 90.215 16.6749C90.3248 16.896 90.3795 17.1401 90.3746 17.3866C90.383 17.624 90.3321 17.8599 90.2264 18.073C90.1207 18.2861 89.9635 18.4699 89.7689 18.6079C89.2712 18.9354 88.6809 19.0956 88.0848 19.065H86.8565ZM86.8565 18.176H88.0595C88.3549 18.1949 88.6483 18.1257 88.9015 17.9768C88.9968 17.9131 89.0739 17.8261 89.1257 17.7242C89.1774 17.6223 89.2019 17.509 89.197 17.395C89.2002 17.2734 89.1743 17.1528 89.1215 17.0431C89.0687 16.9334 88.9904 16.8377 88.8931 16.7639C88.6504 16.5869 88.3523 16.5014 88.0521 16.5228H86.8386L86.8565 18.176ZM93.481 18.2588L93.5728 18.5083L94.7937 15.6338H96.1232L94.1205 19.7129C93.9949 20.0127 93.825 20.2927 93.615 20.5432C93.4673 20.7057 93.2827 20.8305 93.0769 20.9101C92.8342 21.0045 92.5725 21.0506 92.3108 21.0422H91.797V20.1197H92.2349C92.3865 20.1233 92.5359 20.0837 92.6657 20.0057C92.7954 19.9277 92.9 19.8145 92.9672 19.6794L90.8547 15.6338H92.2011L93.481 18.2588ZM101.797 20.9259H100.569V16.5228H97.9835V20.9259H96.7469V15.6338H101.797V20.9259ZM108.009 20.9259L106.789 20.9259V16.5228H104.197V20.9259H102.983V15.6338L108.034 15.6338L108.009 20.9259ZM112.739 19.7957H110.324L109.852 20.9259H108.624L110.98 15.6338H112.1L114.423 20.9259H113.194L112.739 19.7957ZM110.678 18.9654H112.362L111.52 16.9547L110.678 18.9654ZM119.399 18.7987H118.868V20.9259H117.655V15.6338H118.868V17.8101H119.365L120.921 15.6338H122.352L120.358 18.2263L122.504 20.9259H120.989L119.399 18.7987ZM128.219 18.4004C128.237 18.7487 128.182 19.097 128.058 19.4232C127.933 19.7493 127.741 20.0461 127.495 20.2947C127.24 20.5332 126.94 20.7184 126.612 20.8396C126.284 20.9608 125.935 21.0154 125.585 21.0003C125.236 21.0132 124.887 20.9575 124.559 20.8364C124.231 20.7154 123.931 20.5313 123.674 20.2947C123.42 20.0461 123.222 19.7462 123.095 19.4153C122.967 19.0844 122.912 18.7301 122.934 18.3763V18.1676C122.922 17.6864 123.038 17.2106 123.27 16.788C123.482 16.3991 123.807 16.0804 124.204 15.8749C124.629 15.6597 125.1 15.5514 125.577 15.5593C125.928 15.5437 126.28 15.5989 126.609 15.7216C126.939 15.8443 127.24 16.0319 127.495 16.2733C127.741 16.5271 127.932 16.8283 128.057 17.1582C128.181 17.4881 128.236 17.8398 128.219 18.1917V18.4004ZM127.05 18.1592C127.079 17.7084 126.948 17.2615 126.679 16.897C126.468 16.6797 126.194 16.5327 125.895 16.476C125.596 16.4193 125.286 16.4558 125.009 16.5804C124.825 16.6626 124.66 16.7814 124.524 16.9295C124.248 17.2911 124.113 17.74 124.145 18.1928V18.4339C124.117 18.8872 124.254 19.3354 124.532 19.6961C124.669 19.8365 124.832 19.9481 125.013 20.0244C125.194 20.1006 125.388 20.1399 125.585 20.1399C125.781 20.1399 125.976 20.1006 126.156 20.0244C126.337 19.9481 126.501 19.8365 126.637 19.6961C126.904 19.3271 127.035 18.8784 127.008 18.4255L127.05 18.1592ZM130.796 15.6338L132.479 19.4634L134.162 15.6338H135.753V20.9259L134.541 20.9259V19.4969L134.625 16.9295L132.942 20.9259H132.1L130.299 16.9295L130.425 19.4969V20.9259H129.213V15.6338H130.796ZM141.957 20.9259H140.728V16.5228H138.144V20.9259H136.932V15.6338H141.982L141.957 20.9259ZM146.705 19.7957H144.289L143.817 20.9259H142.589L144.945 15.6338H146.064L148.405 20.9259H147.176L146.705 19.7957ZM144.642 18.9654H146.326L145.484 16.9547L144.642 18.9654ZM154.103 20.9259H152.882V18.7662L150.264 18.7662V20.9259H149.044V15.6338L150.264 15.6338V17.8846L152.882 17.8846V15.6338H154.103V20.9259ZM159.146 15.6338H160.365V20.9259H159.146V17.2786L156.511 20.9259H155.298V15.6338H156.511V19.2642L159.146 15.6338ZM165.417 15.6338H166.611V20.9259H165.4V17.2786L162.748 20.9259H161.561V15.6338H162.782V19.2642L165.417 15.6338ZM165.703 13.9302C165.708 14.1086 165.671 14.2858 165.595 14.4475C165.519 14.6092 165.406 14.7509 165.265 14.8611C164.915 15.0895 164.505 15.2112 164.086 15.2112C163.667 15.2112 163.257 15.0895 162.907 14.8611C162.768 14.7489 162.657 14.6068 162.581 14.4455C162.506 14.2843 162.468 14.1081 162.471 13.9302H163.379C163.375 14.0172 163.39 14.1042 163.423 14.1847C163.457 14.2652 163.508 14.3373 163.573 14.3956C163.716 14.5154 163.9 14.5752 164.086 14.5623C164.179 14.5695 164.272 14.5585 164.36 14.5299C164.448 14.5013 164.53 14.4557 164.6 14.3956C164.663 14.3365 164.713 14.264 164.745 14.1835C164.777 14.103 164.79 14.0165 164.785 13.9302H165.703Z" fill="#010100" stroke="#010100" stroke-width="0.438509" mask="url(#path-4-inside-1_265_23579)"/>
</svg>
