<svg width="60" height="61" viewBox="0 0 60 61" fill="none" xmlns="http://www.w3.org/2000/svg">
<circle cx="30" cy="30.5" r="29.5" stroke="#010100"/>
<path d="M15.3955 44.6503V44.6503V15.8537C15.3958 15.7091 15.4385 15.5685 15.5175 15.4498L15.5176 15.4497C15.5966 15.3307 15.7096 15.2376 15.8413 15.1825L15.8416 15.1823C15.9722 15.1275 16.1154 15.1132 16.2536 15.1408C16.3919 15.1684 16.5199 15.237 16.6213 15.339C16.6213 15.339 16.6213 15.339 16.6213 15.339L45.2346 44.1396C45.2348 44.1398 45.2349 44.1399 45.235 44.14C45.309 44.2149 45.3662 44.3059 45.4018 44.4069C45.4376 44.5079 45.4507 44.6161 45.4402 44.7232C45.4296 44.8304 45.3957 44.9335 45.3412 45.025C45.2868 45.1165 45.2132 45.1941 45.1264 45.2523L45.1243 45.2537C45.0072 45.3331 44.8706 45.3757 44.731 45.3771H16.1138H16.1136C15.925 45.3771 15.7426 45.3018 15.6064 45.1651C15.5401 45.0984 15.487 45.0186 15.4507 44.9302C15.4143 44.8417 15.3955 44.7466 15.3955 44.6503Z" fill="#010100" stroke="#010100" stroke-width="1.08"/>
<path opacity="0.9" d="M50.6352 38.669L46.4941 34.5021L47.985 32.9781C48.1719 32.7886 48.2768 32.5317 48.2768 32.2639C48.2768 31.9961 48.1719 31.7392 47.985 31.5497L29.7683 13.2006C29.5798 13.0105 29.3246 12.9039 29.0587 12.9043C28.7927 12.9043 28.5374 13.0108 28.3486 13.2006L26.8345 14.7101L22.0586 9.91461C21.8828 9.7363 21.6587 9.61484 21.4148 9.56563C21.1708 9.51642 20.9179 9.54167 20.6881 9.63818C20.4585 9.73433 20.2621 9.89658 20.1245 10.1057C19.9868 10.314 19.9139 10.5593 19.9151 10.81V39.5644C19.9151 39.8997 20.0468 40.2212 20.2823 40.4586C20.5172 40.696 20.8358 40.83 21.1693 40.8312H49.7453C49.9945 40.8312 50.2377 40.7567 50.4442 40.6173C50.5991 40.5142 50.7292 40.3774 50.8252 40.2169C50.9212 40.0563 50.9805 39.8761 50.9988 39.6893C51.0171 39.5026 50.994 39.314 50.931 39.1375C50.8681 38.9609 50.7671 38.8009 50.6352 38.669Z" fill="#FAF9F5" stroke="#010100" stroke-miterlimit="10"/>
</svg>
