<svg width="16" height="16" viewBox="0 0 16 16" fill="none" xmlns="http://www.w3.org/2000/svg">
<path fill-rule="evenodd" clip-rule="evenodd" d="M7.37314 0.689148C10.9294 0.392563 13.9251 3.06824 14 6.51821L14.0002 6.53269C14.0002 7.73862 13.6225 8.86569 12.9529 9.83356L12.9462 9.84302L9.5625 14.5574C9.55578 14.5668 9.54883 14.5759 9.54164 14.5849C8.76385 15.5579 7.23415 15.6178 6.48677 14.5545L3.1019 9.83855C2.21957 8.58761 1.75592 7.00825 2.13087 5.33682C2.59321 2.83058 4.77847 0.985597 7.35279 0.69116C7.35956 0.690386 7.36635 0.689715 7.37314 0.689148ZM7.49415 2.01703C5.43372 2.25687 3.77908 3.72366 3.44011 5.58946C3.43838 5.59899 3.43644 5.60849 3.4343 5.61793C3.15179 6.86194 3.48348 8.06515 4.18994 9.06782L7.57679 13.7865C7.75727 14.0446 8.20741 14.105 8.49093 13.7637L11.8596 9.07041C12.3809 8.31498 12.6654 7.45424 12.6669 6.53993C12.6051 3.88775 10.3001 1.78855 7.49415 2.01703Z" fill="#010100"/>
<path fill-rule="evenodd" clip-rule="evenodd" d="M8.00039 5.26668C7.30083 5.26668 6.73372 5.83379 6.73372 6.53335C6.73372 7.23291 7.30083 7.80002 8.00039 7.80002C8.69995 7.80002 9.26706 7.23291 9.26706 6.53335C9.26706 5.83379 8.69995 5.26668 8.00039 5.26668ZM5.40039 6.53335C5.40039 5.09741 6.56445 3.93335 8.00039 3.93335C9.43633 3.93335 10.6004 5.09741 10.6004 6.53335C10.6004 7.96929 9.43633 9.13335 8.00039 9.13335C6.56445 9.13335 5.40039 7.96929 5.40039 6.53335Z" fill="#010100"/>
<path fill-rule="evenodd" clip-rule="evenodd" d="M8.00039 5.26668C7.30083 5.26668 6.73372 5.83379 6.73372 6.53335C6.73372 7.23291 7.30083 7.80002 8.00039 7.80002C8.69995 7.80002 9.26706 7.23291 9.26706 6.53335C9.26706 5.83379 8.69995 5.26668 8.00039 5.26668ZM5.40039 6.53335C5.40039 5.09741 6.56445 3.93335 8.00039 3.93335C9.43633 3.93335 10.6004 5.09741 10.6004 6.53335C10.6004 7.96929 9.43633 9.13335 8.00039 9.13335C6.56445 9.13335 5.40039 7.96929 5.40039 6.53335Z" fill="#010100"/>
<path fill-rule="evenodd" clip-rule="evenodd" d="M8.00039 5.26668C7.30083 5.26668 6.73372 5.83379 6.73372 6.53335C6.73372 7.23291 7.30083 7.80002 8.00039 7.80002C8.69995 7.80002 9.26706 7.23291 9.26706 6.53335C9.26706 5.83379 8.69995 5.26668 8.00039 5.26668ZM5.40039 6.53335C5.40039 5.09741 6.56445 3.93335 8.00039 3.93335C9.43633 3.93335 10.6004 5.09741 10.6004 6.53335C10.6004 7.96929 9.43633 9.13335 8.00039 9.13335C6.56445 9.13335 5.40039 7.96929 5.40039 6.53335Z" fill="#010100"/>
</svg>
