<svg width="16" height="17" viewBox="0 0 16 17" fill="none" xmlns="http://www.w3.org/2000/svg">
<g clip-path="url(#clip0_265_23587)">
<path fill-rule="evenodd" clip-rule="evenodd" d="M2.38363 1.96625C3.24301 1.1096 4.68394 1.34916 5.29234 2.35993L5.29657 2.36697L6.69903 4.76364C7.11204 5.4841 7.00784 6.41029 6.39169 7.02448L6.15908 7.25635C6.9827 8.54817 8.23386 9.82623 9.49855 10.5927L9.72976 10.3879C10.3459 9.78716 11.2656 9.68842 11.9824 10.0967L11.9876 10.0996L14.3609 11.4797C14.9485 11.761 15.2577 12.3045 15.321 12.8471C15.3843 13.3893 15.2107 13.9777 14.7887 14.3984L13.989 15.1955C13.1587 16.0232 11.807 16.3895 10.6536 15.8669C9.13532 15.2464 6.85816 14.0756 4.78278 12.0068C2.70198 9.93264 1.52907 7.59188 0.912838 6.15997C0.38713 5.01367 0.749394 3.66964 1.57392 2.83987L2.36517 1.9854C2.37119 1.9789 2.37735 1.97251 2.38363 1.96625ZM3.33336 2.89868L2.54485 3.75019C2.53882 3.7567 2.53267 3.76308 2.52639 3.76934C2.02723 4.26691 1.86116 5.03766 2.1271 5.61204C2.12966 5.61757 2.13214 5.62314 2.13455 5.62874C2.71881 6.98767 3.81129 9.15946 5.72526 11.0674C7.64265 12.9786 9.75699 14.0658 11.171 14.6424C11.1801 14.6461 11.1891 14.65 11.198 14.6541C11.7742 14.9192 12.5474 14.7536 13.0465 14.2561L13.8463 13.4589C13.9574 13.3481 14.0171 13.1726 13.9971 13.0006C13.9783 12.8395 13.8984 12.7292 13.7752 12.6733C13.7546 12.664 13.7346 12.6537 13.7151 12.6424L11.319 11.2491C11.1091 11.1307 10.8398 11.1601 10.6569 11.3425C10.6476 11.3517 10.6381 11.3606 10.6284 11.3693L10.0286 11.9007C9.82202 12.0838 9.52357 12.1207 9.27837 11.9936C7.48029 11.0616 5.72581 9.2334 4.7392 7.47721C4.59341 7.21769 4.63844 6.8932 4.84943 6.68288L5.44922 6.085C5.63218 5.90262 5.66171 5.6342 5.54294 5.42491L4.14768 3.04065C3.95777 2.72915 3.54217 2.70073 3.33336 2.89868Z" fill="#010100"/>
<path fill-rule="evenodd" clip-rule="evenodd" d="M10.8373 5.93958C10.503 5.60531 9.98666 5.48549 9.62156 5.60719C9.24166 5.73382 8.83103 5.52851 8.7044 5.14861C8.57776 4.76871 8.78308 4.35808 9.16298 4.23145C10.103 3.9181 11.1818 4.23332 11.8627 4.91416C12.5435 5.59501 12.8588 6.67384 12.5454 7.61388C12.4188 7.99378 12.0081 8.19909 11.6282 8.07246C11.2483 7.94582 11.043 7.5352 11.1697 7.1553C11.2914 6.79019 11.1715 6.27385 10.8373 5.93958Z" fill="#010100"/>
<path fill-rule="evenodd" clip-rule="evenodd" d="M12.6326 4.14332C11.4498 2.96056 9.73051 2.54431 8.18999 2.95906C7.82734 3.0567 7.4542 2.84186 7.35656 2.4792C7.25892 2.11655 7.47376 1.74341 7.83642 1.64577C9.83204 1.10849 12.0569 1.64427 13.5943 3.18162C15.1316 4.71896 15.6674 6.94384 15.1301 8.93946C15.0325 9.30212 14.6593 9.51696 14.2967 9.41932C13.934 9.32168 13.7192 8.94854 13.8168 8.58588C14.2316 7.04537 13.8153 5.32608 12.6326 4.14332Z" fill="#010100"/>
</g>
<defs>
<clipPath id="clip0_265_23587">
<rect width="16" height="16" fill="white" transform="translate(0 0.776367)"/>
</clipPath>
</defs>
</svg>
