<svg width="20" height="20" viewBox="0 0 20 20" fill="none" xmlns="http://www.w3.org/2000/svg">
<path fill-rule="evenodd" clip-rule="evenodd" d="M13 2C13 1.44772 13.4477 1 14 1H18C18.5523 1 19 1.44772 19 2V6C19 6.55228 18.5523 7 18 7C17.4477 7 17 6.55228 17 6V4.41421L10.7071 10.7071C10.3166 11.0976 9.68342 11.0976 9.29289 10.7071C8.90237 10.3166 8.90237 9.68342 9.29289 9.29289L15.5858 3H14C13.4477 3 13 2.55228 13 2Z" fill="#010100"/>
<path fill-rule="evenodd" clip-rule="evenodd" d="M10 0H3.5C1.54772 0 0 1.54772 0 3.5V16.5C0 18.4523 1.54772 20 3.5 20H16.5C18.4255 20 20 18.4787 20 16.6V10H18V16.6C18 17.3213 17.3745 18 16.5 18H3.5C2.65228 18 2 17.3477 2 16.5V3.5C2 2.65228 2.65228 2 3.5 2H10V0Z" fill="#010100"/>
</svg>
