<svg width="17" height="17" viewBox="0 0 17 17" fill="none" xmlns="http://www.w3.org/2000/svg">
<path fill-rule="evenodd" clip-rule="evenodd" d="M4.24518 4.1097C3.33102 4.1097 2.50033 4.92811 2.50033 6.09131V11.4614C2.50033 12.6246 3.33102 13.443 4.24518 13.443H12.8195C13.7365 13.443 14.5497 12.6273 14.498 11.4917C14.4976 11.4816 14.4973 11.4715 14.4973 11.4614V6.09131C14.4973 4.92811 13.6667 4.1097 12.7525 4.1097H4.24518ZM1.16699 6.09131C1.16699 4.31199 2.47987 2.77637 4.24518 2.77637H12.7525C14.5178 2.77637 15.8307 4.31199 15.8307 6.09131V11.4471C15.9044 13.2472 14.5767 14.7764 12.8195 14.7764H4.24518C2.47987 14.7764 1.16699 13.2407 1.16699 11.4614V6.09131Z" fill="#010100"/>
<path fill-rule="evenodd" clip-rule="evenodd" d="M3.91979 5.78096C4.10132 5.46063 4.50816 5.34812 4.82849 5.52965L7.94768 7.29735C8.30878 7.49153 8.6908 7.49153 9.0519 7.29735L12.1711 5.52965C12.4914 5.34812 12.8983 5.46063 13.0798 5.78096C13.2613 6.10128 13.1488 6.50812 12.8285 6.68966L9.70349 8.46065L9.69284 8.46655C8.93198 8.87958 8.0676 8.87958 7.30674 8.46655L7.29609 8.46065L4.17109 6.68966C3.85077 6.50812 3.73825 6.10128 3.91979 5.78096Z" fill="#010100"/>
</svg>
