<svg width="24" height="24" viewBox="0 0 24 24" fill="none" xmlns="http://www.w3.org/2000/svg">
<path d="M12 2C17.5 2 22 6.5 22 12C22 12.6 21.6 13 21 13H11.1L14.3 16.2C14.7 16.6 14.7 17.2 14.3 17.6C14.1 17.8 13.9 17.9 13.6 17.9C13.3 17.9 13.1 17.8 12.9 17.6L8.1 12.7C7.7 12.3 7.7 11.7 8.1 11.3L12.8 6.4C13.2 6 13.9 6 14.2 6.4C14.6 6.8 14.6 7.4 14.2 7.8L11.1 11H19.9C19.4 7.1 16.1 4 12 4C7.6 4 4 7.6 4 12C4 16.4 7.6 20 12 20C15.3 20 18.2 18 19.5 14.9C19.7 14.4 20.3 14.1 20.8 14.3C21.3 14.5 21.6 15.1 21.4 15.6C19.8 19.5 16.1 22 12 22C6.5 22 2 17.5 2 12C2 6.5 6.5 2 12 2Z" fill="#010100"/>
</svg>
