<svg width="32" height="33" viewBox="0 0 32 33" fill="none" xmlns="http://www.w3.org/2000/svg">
<circle cx="16" cy="16.7764" r="16" fill="#010100"/>
<path d="M23.8448 20.8683C23.8448 20.8019 23.7784 20.8019 23.7784 20.7354C23.5127 20.2041 22.915 19.5399 22.1179 18.8093C21.7194 18.4772 21.5202 18.2115 21.3873 18.0787C21.1881 17.813 21.1881 17.6138 21.2545 17.3481C21.3209 17.1489 21.5866 16.8168 22.0515 16.219C22.3172 15.8869 22.45 15.6877 22.6493 15.4884C23.6455 14.16 24.1105 13.2966 23.9776 12.8981L23.9112 12.8317C23.8448 12.7652 23.7784 12.6988 23.6455 12.6988C23.5127 12.6324 23.3135 12.6324 23.1142 12.6988H20.5903C20.5239 12.6988 20.5239 12.6988 20.3911 12.6988C20.3246 12.6988 20.2582 12.6988 20.2582 12.6988H20.1918H20.1254L20.059 12.7652C19.9925 12.8317 19.9925 12.8317 19.9925 12.8981C19.7269 13.6287 19.3948 14.2264 19.0627 14.8906C18.8634 15.2227 18.6642 15.5548 18.4649 15.8205C18.2657 16.0862 18.1328 16.2854 18 16.4183C17.8672 16.5511 17.7343 16.6175 17.6679 16.7503C17.6015 16.8168 17.4686 16.8832 17.4686 16.8168C17.4022 16.8168 17.3358 16.8168 17.3358 16.7503C17.2694 16.6839 17.203 16.6175 17.1366 16.5511C17.0701 16.4847 17.0701 16.3518 17.0037 16.219C17.0037 16.0862 17.0037 15.9533 17.0037 15.8869C17.0037 15.8205 17.0037 15.6212 17.0037 15.4884C17.0037 15.2891 17.0037 15.1563 17.0037 15.0899C17.0037 14.8906 17.0037 14.625 17.0037 14.3593C17.0037 14.0936 17.0037 13.8944 17.0037 13.7615C17.0037 13.6287 17.0037 13.4294 17.0037 13.2966C17.0037 13.0973 17.0037 12.9645 17.0037 12.8981C17.0037 12.8317 16.9373 12.6988 16.9373 12.6324C16.8709 12.566 16.8045 12.4996 16.738 12.4331C16.6716 12.3667 16.5388 12.3667 16.4724 12.3003C16.1403 12.2339 15.7418 12.1675 15.2769 12.1675C14.2142 12.1675 13.4836 12.2339 13.2179 12.3667C13.085 12.4332 12.9522 12.4996 12.8858 12.6324C12.753 12.7652 12.7529 12.8317 12.8194 12.8317C13.1515 12.8981 13.4171 13.0309 13.55 13.2302L13.6164 13.363C13.6828 13.4294 13.6828 13.5623 13.7492 13.7615C13.8156 13.9608 13.8156 14.16 13.8156 14.4257C13.8156 14.8242 13.8156 15.2227 13.8156 15.4884C13.8156 15.8205 13.7492 16.0197 13.7492 16.219C13.7492 16.4182 13.6828 16.5511 13.6164 16.6175C13.55 16.7503 13.55 16.8168 13.4835 16.8168C13.4835 16.8168 13.4835 16.8832 13.4171 16.8832C13.3507 16.8832 13.2843 16.9496 13.1515 16.9496C13.085 16.9496 12.9522 16.8832 12.8858 16.8168C12.753 16.7503 12.6201 16.6175 12.5537 16.4847C12.4209 16.3518 12.288 16.1526 12.1552 15.8869C12.0223 15.6212 11.8231 15.3556 11.6902 14.957L11.5574 14.6914C11.491 14.5585 11.3582 14.2929 11.2253 13.9608C11.0925 13.6287 10.9597 13.363 10.8268 13.0309C10.7604 12.8981 10.694 12.8317 10.6276 12.7652H10.5611C10.5611 12.7652 10.4947 12.6988 10.4283 12.6988C10.3619 12.6988 10.2955 12.6324 10.2291 12.6324H7.83799C7.57232 12.6324 7.43948 12.6988 7.37306 12.7652L7.30664 12.8317C7.30664 12.8317 7.30664 12.8981 7.30664 12.9645C7.30664 13.0309 7.30664 13.0973 7.37306 13.2302C7.70515 14.0272 8.10366 14.8242 8.50217 15.6212C8.90068 16.3518 9.2992 17.016 9.56487 17.4809C9.89696 17.9459 10.1626 18.4108 10.4947 18.8093C10.8268 19.2078 11.0261 19.4735 11.0925 19.6063C11.2253 19.7392 11.2917 19.8056 11.3582 19.872L11.5574 20.0713C11.6903 20.2041 11.8895 20.4034 12.1552 20.6026C12.4209 20.8019 12.7529 21.0011 13.085 21.2004C13.4171 21.3996 13.8156 21.5325 14.2142 21.6653C14.6791 21.7981 15.0776 21.8646 15.4761 21.7981H16.4724C16.6716 21.7981 16.8045 21.7317 16.9373 21.5989L17.0037 21.5325C17.0037 21.466 17.0701 21.466 17.0701 21.3996C17.0701 21.3332 17.0701 21.2668 17.0701 21.134C17.0701 20.8683 17.0701 20.669 17.1366 20.4698C17.203 20.2705 17.203 20.1377 17.2694 20.0048C17.3358 19.872 17.4022 19.8056 17.4686 19.7392C17.5351 19.6727 17.6015 19.6063 17.6015 19.6063H17.6679C17.8007 19.5399 18 19.6063 18.1328 19.7392C18.3321 19.872 18.5313 20.0713 18.6642 20.2705C18.797 20.4698 18.9963 20.669 19.262 20.9347C19.5276 21.2004 19.7269 21.3996 19.8597 21.466L20.059 21.5989C20.1918 21.6653 20.3246 21.7317 20.5239 21.7981C20.7232 21.8646 20.856 21.8646 20.9888 21.8646L23.2471 21.7981C23.4463 21.7981 23.6456 21.7317 23.7784 21.6653C23.9112 21.5989 23.9776 21.5325 23.9776 21.3996C23.9776 21.3332 23.9776 21.2004 23.9776 21.134C23.8448 21.0011 23.8448 20.9347 23.8448 20.8683Z" fill="#D2D2D2"/>
</svg>
