<svg width="32" height="33" viewBox="0 0 32 33" fill="none" xmlns="http://www.w3.org/2000/svg">
<circle cx="16" cy="16.7764" r="16" fill="#010100"/>
<path d="M7.48076 17.0752L11.1592 18.4469L12.5932 23.0605C12.6556 23.3723 13.0296 23.4346 13.279 23.2476L15.3365 21.5642C15.5235 21.3772 15.8352 21.3772 16.0846 21.5642L19.7631 24.2451C20.0125 24.4322 20.3866 24.3075 20.4489 23.9957L23.1922 10.9029C23.2545 10.5912 22.9428 10.2794 22.6311 10.4041L7.48076 16.2647C7.10668 16.3894 7.10668 16.9505 7.48076 17.0752ZM12.4062 17.7611L19.6384 13.3344C19.7631 13.2721 19.8878 13.4591 19.7631 13.5215L13.8401 19.0703C13.6531 19.2574 13.4661 19.5068 13.4661 19.8185L13.279 21.3148C13.279 21.5019 12.9673 21.5642 12.9049 21.3148L12.1568 18.5716C11.9697 18.2598 12.0944 17.8857 12.4062 17.7611Z" fill="#D2D2D2"/>
</svg>
